<svg xmlns="http://www.w3.org/2000/svg" xmlns:xlink="http://www.w3.org/1999/xlink" viewBox="0 0 3968.5 3968.5" enable-background="new 0 0 3968.5 3968.5" xml:space="preserve"><g><path fill-rule="evenodd" clip-rule="evenodd" d="M2387.5,2253.1v-268.8h-268.8v-268.8h537.6v537.6h268.8V1177.8h-268.8V909H1312.2   v268.8h-268.8v1075.3h268.8v-537.6h537.6v268.8H1581v268.8h-268.8v268.8h-268.8v268.8h268.8v-268.8H1581v268.8h806.5v-268.8h268.8   v268.8h268.8v-268.8h-268.8v-268.8H2387.5z M2118.7,2521.9h-268.8v-268.8h268.8V2521.9z"/><rect x="774.6" y="909" fill-rule="evenodd" clip-rule="evenodd" width="268.8" height="268.8"/><polygon fill-rule="evenodd" clip-rule="evenodd" points="774.6,371.3 505.8,371.3 505.8,640.2 236.9,640.2 236.9,909 774.6,909     "/><rect x="2925.1" y="909" fill-rule="evenodd" clip-rule="evenodd" width="268.8" height="268.8"/><polygon fill-rule="evenodd" clip-rule="evenodd" points="3731.6,640.2 3462.7,640.2 3462.7,371.3 3193.9,371.3 3193.9,909    3731.6,909  "/><rect x="774.6" y="2790.7" fill-rule="evenodd" clip-rule="evenodd" width="268.8" height="268.8"/><rect x="2925.1" y="2790.7" fill-rule="evenodd" clip-rule="evenodd" width="268.8" height="268.8"/><polygon fill-rule="evenodd" clip-rule="evenodd" points="236.9,3328.3 505.8,3328.3 505.8,3597.2 774.6,3597.2 774.6,3059.5    236.9,3059.5  "/><polygon fill-rule="evenodd" clip-rule="evenodd" points="3462.7,3597.2 3462.7,3328.3 3731.6,3328.3 3731.6,3059.5 3193.9,3059.5    3193.9,3597.2  "/></g></svg>
