<svg xmlns="http://www.w3.org/2000/svg" xmlns:xlink="http://www.w3.org/1999/xlink" viewBox="0 0 78 97.5" enable-background="new 0 0 78 78" xml:space="preserve"><g><path d="M30,24h6v-6c-6,0-12,0-18,0v6C22,24,26,24,30,24L30,24z"/><path d="M54,24h6v-6c-6,0-12,0-18,0v6C46,24,50,24,54,24L54,24z"/><polygon points="54,48 60,48 60,42 54,42 54,48  "/><polygon points="48,54 54,54 54,48 48,48 48,54  "/><polygon points="42,60 48,60 48,54 42,54 42,60  "/><path d="M60,24c0,6,0,12,0,18h6c0-6,0-12,0-18H60L60,24z"/><polygon points="42,30 42,24 36,24 36,30 42,30  "/><path d="M18,30v-6h-6c0,6,0,12,0,18h6C18,38,18,34,18,30L18,30z"/><polygon points="18,42 18,48 24,48 24,42 18,42  "/><polygon points="24,48 24,54 30,54 30,48 24,48  "/><polygon points="30,54 30,60 36,60 36,54 30,54  "/><polygon points="36,66 42,66 42,60 36,60 36,66  "/></g></svg>
